<svg width="34" height="33" viewBox="0 0 34 33" fill="none" xmlns="http://www.w3.org/2000/svg">
<path d="M10.9897 21.2616C10.7558 20.9829 10.7696 20.5787 11.0078 20.3167L11.0782 20.249L22.0901 11.0089C22.3942 10.7538 22.8476 10.7934 23.1027 11.0975C23.3366 11.3763 23.3228 11.7804 23.0846 12.0424L23.0141 12.1101L12.0023 21.3502C11.6982 21.6053 11.2448 21.5657 10.9897 21.2616Z" fill="#72160D"/>
<path d="M14.3386 11.5797C13.9431 11.5459 13.6499 11.198 13.6836 10.8024C13.7143 10.4429 14.0047 10.1678 14.3544 10.1461L14.4608 10.1474L22.6131 10.8429C22.9738 10.8737 23.2492 11.1657 23.2696 11.5164L23.2679 11.6232L22.5379 19.7731C22.5025 20.1685 22.1532 20.4603 21.7579 20.4249C21.3984 20.3927 21.1246 20.1012 21.1044 19.7514L21.1061 19.6449L21.7713 12.2138L14.3386 11.5797Z" fill="#72160D"/>
</svg>
