<svg width="32" height="32" viewBox="0 0 32 32" fill="none" xmlns="http://www.w3.org/2000/svg">
<path d="M15.9989 29.3309C14.9735 29.3309 13.9495 28.9416 13.1669 28.1643L12.1935 27.1909C11.8162 26.8149 11.3109 26.6069 10.7749 26.6056H9.40552C7.19218 26.6056 5.39085 24.8043 5.39085 22.5909V21.2203C5.38952 20.6856 5.18152 20.1803 4.80418 19.8003L3.84685 18.8443C2.27885 17.2856 2.27218 14.7376 3.83218 13.1683L4.80552 12.1936C5.18152 11.8163 5.38952 11.3109 5.39085 10.7749V9.40694C5.39085 7.19227 7.19218 5.39094 9.40552 5.39094H10.7762C11.3109 5.39094 11.8149 5.18294 12.1949 4.80294L13.1535 3.84694C14.7122 2.27894 17.2589 2.27094 18.8295 3.83227L19.8029 4.80561C20.1815 5.18294 20.6855 5.39094 21.2202 5.39094H22.5909C24.8042 5.39094 26.6055 7.19227 26.6055 9.40694V10.7763C26.6069 11.3109 26.8149 11.8163 27.1922 12.1963L28.1495 13.1536C28.9082 13.9083 29.3282 14.9136 29.3322 15.9869C29.3349 17.0536 28.9242 18.0576 28.1762 18.8163C28.1629 18.8296 28.1509 18.8443 28.1375 18.8563L27.1909 19.8029C26.8149 20.1803 26.6069 20.6856 26.6055 21.2216V22.5909C26.6055 24.8043 24.8042 26.6056 22.5909 26.6056H21.2202C20.6855 26.6069 20.1802 26.8149 19.8015 27.1923L18.8429 28.1496C18.0615 28.9363 17.0295 29.3309 15.9989 29.3309" fill="#72160D"/>
<path d="M18.5889 18.6105C18.9301 18.2692 19.4421 18.1705 19.874 18.3517C20.0006 18.3943 20.1425 18.4848 20.2598 18.6007C20.4731 18.814 20.5889 19.1069 20.5889 19.4269C20.5888 19.7454 20.4726 20.0382 20.2607 20.2501C20.0221 20.4728 19.7315 20.5929 19.4355 20.5929C19.1237 20.5929 18.8438 20.4798 18.6025 20.256C18.4973 20.1507 18.4172 20.0292 18.3506 19.88C18.2787 19.7175 18.2686 19.5442 18.2686 19.4269C18.2686 19.3095 18.2786 19.1345 18.3506 18.9718C18.4186 18.8212 18.5182 18.6931 18.5889 18.6105ZM18.6045 11.7462C19.0591 11.2929 19.7992 11.293 20.2539 11.7462C20.7085 12.2021 20.7084 12.9406 20.2539 13.3966L13.4004 20.2501C13.1804 20.4701 12.8882 20.5919 12.5762 20.5919C12.2643 20.5918 11.9722 20.47 11.751 20.2501C11.2966 19.7942 11.2966 19.0543 11.751 18.5997L18.6045 11.7462ZM12.1426 11.4943C12.5452 11.3105 13.0802 11.4188 13.3975 11.7521C13.5106 11.8653 13.597 11.9892 13.6543 12.1183C13.717 12.257 13.749 12.4147 13.749 12.5734C13.749 12.8906 13.6226 13.1855 13.3906 13.4015C13.1707 13.6214 12.8852 13.7393 12.5693 13.7394C12.2733 13.7394 11.9824 13.6182 11.749 13.3995C11.5278 13.1796 11.4024 12.8786 11.4023 12.5734C11.4023 12.2827 11.5252 11.9837 11.7412 11.7531C11.8598 11.6331 12.0013 11.5422 12.1426 11.4943Z" fill="#E5E6EE"/>
</svg>
