<svg width="113" height="32" viewBox="0 0 113 32" fill="none" xmlns="http://www.w3.org/2000/svg">
<path d="M40.1683 12.47V15.62H44.3983V17.618H40.1683V20.948H44.9383V23H37.6483V10.418H44.9383V12.47H40.1683ZM49.7483 14.468C50.0723 14.012 50.5163 13.634 51.0803 13.334C51.6563 13.022 52.3103 12.866 53.0423 12.866C53.8943 12.866 54.6623 13.076 55.3463 13.496C56.0423 13.916 56.5883 14.516 56.9843 15.296C57.3923 16.064 57.5963 16.958 57.5963 17.978C57.5963 18.998 57.3923 19.904 56.9843 20.696C56.5883 21.476 56.0423 22.082 55.3463 22.514C54.6623 22.946 53.8943 23.162 53.0423 23.162C52.3103 23.162 51.6623 23.012 51.0983 22.712C50.5463 22.412 50.0963 22.034 49.7483 21.578V27.752H47.2283V13.028H49.7483V14.468ZM55.0223 17.978C55.0223 17.378 54.8963 16.862 54.6443 16.43C54.4043 15.986 54.0803 15.65 53.6723 15.422C53.2763 15.194 52.8443 15.08 52.3763 15.08C51.9203 15.08 51.4883 15.2 51.0803 15.44C50.6843 15.668 50.3603 16.004 50.1083 16.448C49.8683 16.892 49.7483 17.414 49.7483 18.014C49.7483 18.614 49.8683 19.136 50.1083 19.58C50.3603 20.024 50.6843 20.366 51.0803 20.606C51.4883 20.834 51.9203 20.948 52.3763 20.948C52.8443 20.948 53.2763 20.828 53.6723 20.588C54.0803 20.348 54.4043 20.006 54.6443 19.562C54.8963 19.118 55.0223 18.59 55.0223 17.978ZM60.7055 11.84C60.2615 11.84 59.8895 11.702 59.5895 11.426C59.3015 11.138 59.1575 10.784 59.1575 10.364C59.1575 9.944 59.3015 9.596 59.5895 9.32C59.8895 9.032 60.2615 8.888 60.7055 8.888C61.1495 8.888 61.5155 9.032 61.8035 9.32C62.1035 9.596 62.2535 9.944 62.2535 10.364C62.2535 10.784 62.1035 11.138 61.8035 11.426C61.5155 11.702 61.1495 11.84 60.7055 11.84ZM61.9475 13.028V23H59.4275V13.028H61.9475ZM63.7893 18.014C63.7893 16.982 63.9993 16.082 64.4193 15.314C64.8393 14.534 65.4213 13.934 66.1653 13.514C66.9093 13.082 67.7613 12.866 68.7213 12.866C69.9573 12.866 70.9773 13.178 71.7813 13.802C72.5973 14.414 73.1433 15.278 73.4193 16.394H70.7013C70.5573 15.962 70.3113 15.626 69.9633 15.386C69.6273 15.134 69.2073 15.008 68.7033 15.008C67.9833 15.008 67.4133 15.272 66.9933 15.8C66.5733 16.316 66.3633 17.054 66.3633 18.014C66.3633 18.962 66.5733 19.7 66.9933 20.228C67.4133 20.744 67.9833 21.002 68.7033 21.002C69.7233 21.002 70.3893 20.546 70.7013 19.634H73.4193C73.1433 20.714 72.5973 21.572 71.7813 22.208C70.9653 22.844 69.9453 23.162 68.7213 23.162C67.7613 23.162 66.9093 22.952 66.1653 22.532C65.4213 22.1 64.8393 21.5 64.4193 20.732C63.9993 19.952 63.7893 19.046 63.7893 18.014Z" fill="#72160D"/>
<path d="M77.7854 21.002H81.9254V23H75.2654V10.436H77.7854V21.002ZM87.9552 23.162C86.9952 23.162 86.1312 22.952 85.3632 22.532C84.5952 22.1 83.9892 21.494 83.5452 20.714C83.1132 19.934 82.8972 19.034 82.8972 18.014C82.8972 16.994 83.1192 16.094 83.5632 15.314C84.0192 14.534 84.6372 13.934 85.4172 13.514C86.1972 13.082 87.0672 12.866 88.0272 12.866C88.9872 12.866 89.8572 13.082 90.6372 13.514C91.4172 13.934 92.0292 14.534 92.4732 15.314C92.9292 16.094 93.1572 16.994 93.1572 18.014C93.1572 19.034 92.9232 19.934 92.4552 20.714C91.9992 21.494 91.3752 22.1 90.5832 22.532C89.8032 22.952 88.9272 23.162 87.9552 23.162ZM87.9552 20.966C88.4112 20.966 88.8372 20.858 89.2332 20.642C89.6412 20.414 89.9652 20.078 90.2052 19.634C90.4452 19.19 90.5652 18.65 90.5652 18.014C90.5652 17.066 90.3132 16.34 89.8092 15.836C89.3172 15.32 88.7112 15.062 87.9912 15.062C87.2712 15.062 86.6652 15.32 86.1732 15.836C85.6932 16.34 85.4532 17.066 85.4532 18.014C85.4532 18.962 85.6872 19.694 86.1552 20.21C86.6352 20.714 87.2352 20.966 87.9552 20.966ZM99.4337 23.162C98.4737 23.162 97.6097 22.952 96.8417 22.532C96.0737 22.1 95.4677 21.494 95.0237 20.714C94.5917 19.934 94.3757 19.034 94.3757 18.014C94.3757 16.994 94.5977 16.094 95.0417 15.314C95.4977 14.534 96.1157 13.934 96.8957 13.514C97.6757 13.082 98.5457 12.866 99.5057 12.866C100.466 12.866 101.336 13.082 102.116 13.514C102.896 13.934 103.508 14.534 103.952 15.314C104.408 16.094 104.636 16.994 104.636 18.014C104.636 19.034 104.402 19.934 103.934 20.714C103.478 21.494 102.854 22.1 102.062 22.532C101.282 22.952 100.406 23.162 99.4337 23.162ZM99.4337 20.966C99.8897 20.966 100.316 20.858 100.712 20.642C101.12 20.414 101.444 20.078 101.684 19.634C101.924 19.19 102.044 18.65 102.044 18.014C102.044 17.066 101.792 16.34 101.288 15.836C100.796 15.32 100.19 15.062 99.4697 15.062C98.7497 15.062 98.1437 15.32 97.6517 15.836C97.1717 16.34 96.9317 17.066 96.9317 18.014C96.9317 18.962 97.1657 19.694 97.6337 20.21C98.1137 20.714 98.7137 20.966 99.4337 20.966ZM109.418 15.098V19.922C109.418 20.258 109.496 20.504 109.652 20.66C109.82 20.804 110.096 20.876 110.48 20.876H111.65V23H110.066C107.942 23 106.88 21.968 106.88 19.904V15.098H105.692V13.028H106.88V10.562H109.418V13.028H111.65V15.098H109.418Z" fill="#1F3F69"/>
<path d="M26.4062 25H19.4062V32H32.4062V19H26.4062V25Z" fill="#72160D"/>
<path d="M0.40625 19H13.4062V12H19.4062V0H0.40625V19Z" fill="#1F3F69"/>
</svg>
