<svg width="40" height="40" viewBox="0 0 40 40" fill="none" xmlns="http://www.w3.org/2000/svg">
<path d="M18.9448 4.17004C19.573 3.94732 20.2742 3.94281 20.9136 4.1593L31.5327 7.72278C32.7215 8.11973 33.5253 9.21187 33.5317 10.4357L33.6001 21.0607C33.621 24.2815 32.4465 27.4052 30.2964 29.8527C29.3074 30.976 28.0392 31.9409 26.4204 32.8038L20.7114 35.8556C20.5327 35.9497 20.3362 35.9986 20.1382 36.0001C19.9402 36.0017 19.742 35.9549 19.5649 35.8624L13.8032 32.881C12.1668 32.0322 10.8878 31.0814 9.88916 29.9738C7.70339 27.5513 6.48829 24.4416 6.46729 21.2159L6.3999 10.5988C6.39346 9.37349 7.18259 8.27319 8.36475 7.86047L18.9448 4.17004ZM25.9917 15.5499C25.5165 15.0934 24.7515 15.0968 24.2827 15.5597L18.8931 20.8722L16.686 18.7511C16.2109 18.2945 15.4474 18.299 14.9771 18.7618C14.5084 19.2247 14.5136 19.9684 14.9888 20.4249L18.0532 23.3741C18.2916 23.6032 18.6014 23.7162 18.9106 23.713C19.2199 23.7114 19.528 23.5956 19.7632 23.3634L26.0015 17.213C26.47 16.7502 26.4652 16.0065 25.9917 15.5499Z" fill="#72160D"/>
</svg>
