<svg width="40" height="40" viewBox="0 0 40 40" fill="none" xmlns="http://www.w3.org/2000/svg">
<path d="M29.4695 23.7122C29.0551 24.1138 28.8647 24.6946 28.9591 25.2642L30.3815 33.1362C30.5015 33.8034 30.2199 34.4786 29.6615 34.8642C29.1143 35.2642 28.3863 35.3122 27.7895 34.9922L20.7031 31.2962C20.4567 31.165 20.1831 31.0946 19.9031 31.0866H19.4695C19.3191 31.109 19.1719 31.157 19.0375 31.2306L11.9495 34.9442C11.5991 35.1202 11.2023 35.1826 10.8135 35.1202C9.86627 34.941 9.23427 34.0386 9.38947 33.0866L10.8135 25.2146C10.9079 24.6402 10.7175 24.0562 10.3031 23.6482L4.52547 18.0482C4.04227 17.5794 3.87427 16.8754 4.09507 16.2402C4.30947 15.6066 4.85667 15.1442 5.51747 15.0402L13.4695 13.8866C14.0743 13.8242 14.6055 13.4562 14.8775 12.9122L18.3815 5.72817C18.4647 5.56817 18.5719 5.42097 18.7015 5.29617L18.8455 5.18417C18.9207 5.10097 19.0071 5.03217 19.1031 4.97617L19.2775 4.91217L19.5495 4.80017H20.2231C20.8247 4.86257 21.3543 5.22257 21.6311 5.76017L25.1815 12.9122C25.4375 13.4354 25.9351 13.7986 26.5095 13.8866L34.4615 15.0402C35.1335 15.1362 35.6951 15.6002 35.9175 16.2402C36.1271 16.8818 35.9463 17.5858 35.4535 18.0482L29.4695 23.7122Z" fill="#72160D"/>
</svg>
